<?xml version="1.0" encoding="UTF-8" standalone="no"?><!DOCTYPE svg PUBLIC "-//W3C//DTD SVG 1.1//EN" "http://www.w3.org/Graphics/SVG/1.1/DTD/svg11.dtd"><svg width="100%" height="100%" viewBox="0 0 925 109" version="1.1" xmlns="http://www.w3.org/2000/svg" xmlns:xlink="http://www.w3.org/1999/xlink" xml:space="preserve" xmlns:serif="http://www.serif.com/" style="fill-rule:evenodd;clip-rule:evenodd;stroke-linejoin:round;stroke-miterlimit:2;"><g><path d="M320.267,51.775l-0,-2.583c-0,-0.813 -0.675,-1.48 -1.48,-1.48l-19.02,0c-1.475,0 -2.955,0.296 -3.838,0.446c0.883,-0.662 1.921,-1.787 2.738,-3.262l19.97,-34.617c0.446,-0.742 0.813,-1.621 0.813,-2.441l0,-2.663c0,-0.883 -0.663,-1.475 -1.483,-1.475l-24.992,-0c-0.887,-0 -1.633,0.592 -1.633,1.475l-0,2.446c-0,0.817 0.746,1.479 1.633,1.479l17.004,0c1.696,0 3.188,-0.146 4.292,-0.442c-0.888,0.734 -2.004,1.842 -2.729,3.1l-20.2,34.917c-0.292,0.517 -0.663,1.254 -0.663,2.071l0,3.029c0,0.817 0.663,1.479 1.471,1.479l26.637,0c0.805,0 1.48,-0.662 1.48,-1.479Z" style="fill:#ed1846;fill-rule:nonzero;"/><path d="M346.579,32.112l-14.279,0c0.875,-8.7 4.95,-10.083 7.396,-10.083c4.883,0 6.742,5.188 6.883,10.083Zm6.063,3.217c-0,-13.892 -6.279,-18.087 -13.096,-18.087c-7.909,-0 -13.396,6.841 -13.396,17.933c-0,12.017 5.546,18.454 15.767,18.454c4.221,0 6.583,-0.741 8.571,-1.629c0.904,-0.375 1.262,-1.112 0.979,-1.921l-0.675,-1.85c-0.304,-0.733 -0.888,-1.254 -1.929,-0.954c-2.2,0.654 -4.213,1.183 -7.021,1.183c-6.663,0 -9.242,-4.075 -9.542,-11.55l18.867,0c0.808,0 1.475,-0.754 1.475,-1.579Z" style="fill:#ed1846;fill-rule:nonzero;"/><path d="M388.417,51.775l-0,-25.292c-0,-5.55 -3.534,-9.245 -9.084,-9.245c-3.85,-0 -7.029,1.475 -10.204,5.166l-0.816,-3.621c-0.225,-0.887 -0.676,-1.179 -1.709,-1.179l-1.625,0c-0.817,0 -1.546,0.588 -1.546,1.479l0,32.692c0,0.817 0.729,1.479 1.546,1.479l2.821,0c0.804,0 1.55,-0.662 1.55,-1.479l0,-20.338c0,-5.1 3.767,-9.183 8.567,-9.183c3.266,0 4.587,1.638 4.587,5.55l0,23.971c0,0.817 0.75,1.479 1.558,1.479l2.821,0c0.805,0 1.534,-0.662 1.534,-1.479Z" style="fill:#ed1846;fill-rule:nonzero;"/><path d="M414.896,51.183l-0.296,-1.55c-0.142,-0.816 -0.825,-1.329 -1.55,-1.175c-0.737,0.138 -1.7,0.288 -2.3,0.288c-1.846,-0 -2.654,-0.888 -2.654,-2.884l-0,-23.466l4.142,-0c0.812,-0 1.479,-0.742 1.479,-1.567l-0,-1.646c-0,-0.825 -0.667,-1.571 -1.479,-1.571l-4.142,0l-0,-9.254c-0,-1.17 -1.042,-1.104 -1.934,-0.8l-2.733,0.963c-0.662,0.225 -1.108,0.804 -1.108,1.625l-0,7.466l-4.067,0c-0.887,0 -1.487,0.746 -1.487,1.571l-0,1.646c-0,0.825 0.6,1.567 1.487,1.567l4.067,-0l-0,24.208c-0,4.729 2.367,7.025 7.396,7.025c1.558,0 3.037,-0.221 4.058,-0.525c1.042,-0.292 1.275,-1.041 1.121,-1.921Z" style="fill:#ed1846;fill-rule:nonzero;"/><path d="M441.312,19.825c0.359,-1.483 -1.483,-2.587 -3.854,-2.587c-3.408,-0 -6.221,1.987 -8.287,5.47l-1.046,-3.995c-0.229,-0.738 -0.796,-1.109 -1.537,-1.109l-1.709,0c-0.808,0 -1.558,0.588 -1.558,1.479l-0,32.692c-0,0.817 0.75,1.479 1.558,1.479l2.804,0c0.817,0 1.563,-0.662 1.563,-1.479l-0,-19.308c-0,-6.429 2.887,-9.096 5.033,-9.096c1.404,-0 3.1,0.521 4.133,0.825c1.267,0.362 1.921,-0.304 2.142,-1.334l0.758,-3.037Z" style="fill:#ed1846;fill-rule:nonzero;"/><path d="M472.358,51.775l0,-32.692c0,-0.891 -0.741,-1.479 -1.537,-1.479l-2.825,0c-0.813,0 -1.554,0.588 -1.554,1.479l-0,17.979c-0,7.834 -3.692,11.621 -8.954,11.621c-2.805,0 -4.501,-1.558 -4.501,-5.195l0,-24.405c0,-0.891 -0.737,-1.479 -1.566,-1.479l-2.8,0c-0.817,0 -1.546,0.588 -1.546,1.479l-0,25.15c-0,6.217 3.392,9.396 8.792,9.396c6.512,0 8.95,-3.483 10.795,-5.471l0.967,3.842c0.213,0.812 0.734,1.254 1.488,1.254l1.704,0c0.796,0 1.537,-0.662 1.537,-1.479Z" style="fill:#ed1846;fill-rule:nonzero;"/><path d="M526.137,51.775l0,-26.925c0,-6.283 -4.804,-7.612 -8.07,-7.612c-3.838,-0 -7.021,1.845 -10.055,5.47c-0.67,-3.4 -3.695,-5.47 -7.62,-5.47c-3.925,-0 -7.325,2.666 -9.392,5.095l-0.817,-3.55c-0.229,-0.887 -0.67,-1.179 -1.7,-1.179l-1.625,0c-0.816,0 -1.558,0.588 -1.558,1.479l0,32.692c0,0.817 0.742,1.479 1.558,1.479l2.809,0c0.82,0 1.554,-0.662 1.554,-1.479l-0,-20.404c-0,-5.117 3.691,-8.967 8.062,-8.967c2.296,0 3.471,1.184 3.471,3.488l0,25.883c0,0.817 0.75,1.479 1.563,1.479l2.808,0c0.808,0 1.55,-0.662 1.55,-1.479l0,-20.404c0,-5.117 3.775,-8.967 8.137,-8.967c2.296,0 3.409,1.184 3.409,3.488l-0,25.883c-0,0.817 0.737,1.479 1.562,1.479l2.805,0c0.812,0 1.549,-0.662 1.549,-1.479Z" style="fill:#ed1846;fill-rule:nonzero;"/><path d="M30.433,53.404l-2.879,0c-0.833,0 -1.583,-0.679 -1.583,-1.521l-0,-22.587l-19.113,-0l0,22.587c0,0.842 -0.758,1.521 -1.587,1.521l-2.863,0c-0.829,0 -1.6,-0.679 -1.6,-1.521l0,-47.587c0,-0.896 0.771,-1.508 1.6,-1.508l2.863,-0c0.829,-0 1.587,0.612 1.587,1.508l0,19.562l19.113,0l-0,-19.562c-0,-0.896 0.75,-1.508 1.583,-1.508l2.879,-0c0.825,-0 1.588,0.612 1.588,1.508l-0,47.587c-0,0.842 -0.763,1.521 -1.588,1.521Z" style="fill:#ed1846;fill-rule:nonzero;"/><path d="M56.642,21.446c-2.488,-0 -6.646,1.442 -7.559,10.429l14.592,0c-0.162,-5.067 -2.046,-10.429 -7.033,-10.429Zm11.708,15.266l-19.267,0c0.317,7.626 2.946,11.784 9.759,11.784c2.862,-0 4.908,-0.538 7.162,-1.217c1.059,-0.296 1.663,0.233 1.971,0.988l0.675,1.883c0.296,0.833 -0.075,1.588 -0.983,1.962c-2.034,0.909 -4.459,1.671 -8.754,1.671c-10.434,0 -16.101,-6.579 -16.101,-18.812c0,-11.409 5.592,-18.359 13.684,-18.359c6.946,0 13.371,4.23 13.371,18.5c-0,0.838 -0.68,1.6 -1.517,1.6Z" style="fill:#ed1846;fill-rule:nonzero;"/><path d="M89.342,52.942c-1.284,0.462 -2.709,0.841 -4.45,0.841c-4.759,0 -6.879,-2.27 -6.879,-6.421l-0,-45.937c-0,-0.908 0.758,-1.513 1.579,-1.513l2.733,0c0.821,0 1.579,0.605 1.579,1.513l0,44.417c0,1.887 0.221,2.95 1.884,2.95c0.687,-0 1.516,-0.221 2.416,-0.446c0.913,-0.233 1.442,-0 1.667,0.967l0.446,2.045c0.162,0.838 -0.15,1.284 -0.975,1.584Z" style="fill:#ed1846;fill-rule:nonzero;"/><path d="M137.246,53.404l-2.871,0c-0.842,0 -1.592,-0.679 -1.592,-1.521l0,-26.425c0,-2.354 -1.129,-3.562 -3.483,-3.562c-4.454,-0 -8.292,3.933 -8.292,9.141l0,20.846c0,0.842 -0.762,1.521 -1.604,1.521l-2.867,0c-0.824,0 -1.587,-0.679 -1.587,-1.521l0,-26.425c0,-2.354 -1.212,-3.562 -3.554,-3.562c-4.442,-0 -8.221,3.933 -8.221,9.141l0,20.846c0,0.842 -0.767,1.521 -1.596,1.521l-2.867,0c-0.829,0 -1.591,-0.679 -1.591,-1.521l-0,-33.375c-0,-0.916 0.762,-1.525 1.591,-1.525l1.663,0c1.05,0 1.5,0.313 1.729,1.213l0.842,3.629c2.112,-2.487 5.583,-5.213 9.587,-5.213c4.004,0 7.096,2.113 7.792,5.584c3.083,-3.688 6.337,-5.584 10.258,-5.584c3.321,0 8.242,1.363 8.242,7.784l-0,27.487c-0,0.842 -0.754,1.521 -1.579,1.521Z" style="fill:#ed1846;fill-rule:nonzero;"/><path d="M174.558,53.404l-2.712,0c-0.833,0 -1.6,-0.679 -1.6,-1.521l-0,-24.466c-0,-4.013 -1.504,-5.675 -4.821,-5.675c-4.913,-0 -8.917,4.166 -8.917,9.375l0,20.766c0,0.842 -0.77,1.521 -1.591,1.521l-2.73,0c-0.824,0 -1.583,-0.679 -1.583,-1.521l0,-50.458c0,-0.908 0.759,-1.513 1.583,-1.513l2.73,0c0.821,0 1.591,0.605 1.591,1.513l0,20.317c3.246,-3.621 6.488,-5.13 10.346,-5.13c5.663,0 9.283,3.784 9.283,9.442l0,25.829c0,0.842 -0.758,1.521 -1.579,1.521Z" style="fill:#ed1846;fill-rule:nonzero;"/><path d="M199.563,21.667c-5.205,-0 -8.092,4.462 -8.092,13.525c-0,9.287 2.887,13.6 8.092,13.6c5.22,-0 8.087,-4.313 8.087,-13.6c0,-9.063 -2.867,-13.525 -8.087,-13.525Zm0.145,32.116c-8.77,0 -14.5,-6.954 -14.5,-18.591c0,-11.563 5.73,-18.58 14.5,-18.58c8.763,0 14.363,7.017 14.363,18.58c-0,11.637 -5.6,18.591 -14.363,18.591Z" style="fill:#ed1846;fill-rule:nonzero;"/><path d="M234.471,52.942c-1.288,0.462 -2.738,0.841 -4.471,0.841c-4.75,0 -6.867,-2.27 -6.867,-6.421l0,-45.937c0,-0.908 0.75,-1.513 1.579,-1.513l2.73,0c0.821,0 1.579,0.605 1.579,1.513l-0,44.417c-0,1.887 0.229,2.95 1.892,2.95c0.674,-0 1.512,-0.221 2.416,-0.446c0.904,-0.233 1.429,-0 1.663,0.967l0.446,2.045c0.162,0.838 -0.142,1.284 -0.967,1.584Z" style="fill:#ed1846;fill-rule:nonzero;"/><path d="M254.7,53.25c-1.05,0.304 -2.558,0.533 -4.142,0.533c-5.141,0 -7.562,-2.35 -7.562,-7.179l-0,-24.779l-4.146,0c-0.913,0 -1.521,-0.758 -1.521,-1.583l0,-1.663c0,-0.837 0.608,-1.596 1.521,-1.596l4.146,0l-0,-7.629c-0,-0.825 0.446,-1.429 1.133,-1.654l2.792,-0.979c0.916,-0.313 1.962,-0.379 1.962,0.829l0,9.433l4.238,0c0.833,0 1.5,0.759 1.5,1.596l-0,1.663c-0,0.825 -0.667,1.583 -1.5,1.583l-4.238,0l0,24.017c0,2.041 0.842,2.95 2.717,2.95c0.613,-0 1.588,-0.15 2.354,-0.296c0.746,-0.15 1.438,0.379 1.592,1.2l0.291,1.592c0.151,0.908 -0.07,1.654 -1.137,1.962Z" style="fill:#ed1846;fill-rule:nonzero;"/><path d="M281.525,53.404l-19.942,0c-1.062,0 -1.67,-0.908 -1.67,-2.266l-0,-1.738c-0,-0.675 0.304,-1.287 0.608,-1.813l14.583,-23.491c0.604,-0.992 1.125,-1.829 1.663,-2.354c-0.684,0.154 -1.746,0.154 -2.192,0.154l-12.079,-0c-0.913,-0 -1.521,-0.759 -1.521,-1.579l-0,-1.738c-0,-0.837 0.608,-1.596 1.521,-1.596l18.646,0c0.833,0 1.508,0.759 1.508,1.596l0,2.338c0,0.75 -0.142,1.208 -0.529,1.812l-13.888,22.517c-0.683,1.125 -1.591,2.483 -2.2,3.25c0.763,-0.079 1.975,-0.15 2.805,-0.15l12.687,-0c0.838,-0 1.504,0.529 1.504,1.35l0,2.121c0,0.825 -0.666,1.587 -1.504,1.587Z" style="fill:#ed1846;fill-rule:nonzero;"/><path d="M601.471,51.775l-0,-26.925c-0,-6.283 -4.813,-7.612 -8.063,-7.612c-3.85,-0 -7.025,1.845 -10.062,5.47c-0.667,-3.4 -3.696,-5.47 -7.608,-5.47c-3.938,-0 -7.326,2.666 -9.405,5.095l-0.812,-3.55c-0.221,-0.887 -0.667,-1.179 -1.704,-1.179l-1.617,0c-0.825,0 -1.571,0.588 -1.571,1.479l0,32.692c0,0.817 0.746,1.479 1.571,1.479l2.808,0c0.8,0 1.554,-0.662 1.554,-1.479l0,-20.404c0,-5.117 3.68,-8.967 8.055,-8.967c2.296,0 3.466,1.184 3.466,3.488l0,25.883c0,0.817 0.754,1.479 1.567,1.479l2.808,0c0.813,0 1.559,-0.662 1.559,-1.479l-0,-20.404c-0,-5.117 3.758,-8.967 8.125,-8.967c2.295,0 3.404,1.184 3.404,3.488l-0,25.883c-0,0.817 0.746,1.479 1.55,1.479l2.804,0c0.829,0 1.571,-0.662 1.571,-1.479Z" style="fill:#ed1846;fill-rule:nonzero;"/><path d="M677.058,51.775l0,-25.292c0,-5.55 -3.55,-9.245 -9.1,-9.245c-3.837,-0 -7.016,1.475 -10.204,5.166l-0.833,-3.621c-0.2,-0.887 -0.654,-1.179 -1.684,-1.179l-1.629,0c-0.808,0 -1.546,0.588 -1.546,1.479l0,32.692c0,0.817 0.738,1.479 1.546,1.479l2.817,0c0.804,0 1.562,-0.662 1.562,-1.479l0,-20.338c0,-5.1 3.759,-9.183 8.563,-9.183c3.267,0 4.588,1.638 4.588,5.55l-0,23.971c-0,0.817 0.745,1.479 1.554,1.479l2.808,0c0.821,0 1.558,-0.662 1.558,-1.479Z" style="fill:#ed1846;fill-rule:nonzero;"/><path d="M709.737,50.888l-0.512,-2.292c-0.146,-0.742 -0.817,-1.404 -1.846,-1.1c-1.404,0.358 -3.192,0.662 -5.187,0.662c-5.621,0 -8.5,-4.295 -8.5,-13.025c-0,-7.983 3.258,-12.8 7.829,-12.8c2.079,0 3.862,0.596 5.033,1.038c1.113,0.437 1.629,-0.15 1.854,-0.884l0.742,-2.141c0.3,-0.817 -0.15,-1.413 -1.112,-1.846c-1.334,-0.604 -3.776,-1.262 -6.292,-1.262c-8.209,-0 -14.346,7.395 -14.346,17.895c0,11.909 5.771,18.496 14.425,18.496c2.521,0 4.654,-0.221 6.725,-0.887c0.971,-0.296 1.338,-1.117 1.187,-1.854Z" style="fill:#ed1846;fill-rule:nonzero;"/><path d="M743.238,51.775l-0,-25.292c-0,-5.55 -3.555,-9.245 -9.105,-9.245c-3.779,-0 -6.95,1.475 -10.133,5.016l-0,-19.887c-0,-0.892 -0.733,-1.484 -1.546,-1.484l-2.671,0c-0.821,0 -1.554,0.592 -1.554,1.484l0,49.408c0,0.817 0.733,1.479 1.554,1.479l2.671,0c0.813,0 1.546,-0.662 1.546,-1.479l-0,-20.338c-0,-5.1 3.929,-9.183 8.733,-9.183c3.246,0 4.73,1.638 4.73,5.55l-0,23.971c-0,0.817 0.737,1.479 1.562,1.479l2.658,0c0.813,0 1.555,-0.662 1.555,-1.479Z" style="fill:#ed1846;fill-rule:nonzero;"/><path d="M774.062,32.112l-14.266,0c0.883,-8.7 4.958,-10.083 7.392,-10.083c4.895,0 6.729,5.188 6.874,10.083Zm6.067,3.217c0,-13.892 -6.279,-18.087 -13.087,-18.087c-7.917,-0 -13.388,6.841 -13.388,17.933c0,12.017 5.55,18.454 15.754,18.454c4.217,0 6.584,-0.741 8.588,-1.629c0.892,-0.375 1.254,-1.112 0.958,-1.921l-0.671,-1.85c-0.287,-0.733 -0.883,-1.254 -1.92,-0.954c-2.217,0.654 -4.217,1.183 -7.026,1.183c-6.662,0 -9.245,-4.075 -9.541,-11.55l18.862,0c0.809,0 1.471,-0.754 1.471,-1.579Z" style="fill:#ed1846;fill-rule:nonzero;"/><path d="M815.925,51.775l-0,-25.292c-0,-5.55 -3.55,-9.245 -9.104,-9.245c-3.842,-0 -7.021,1.475 -10.204,5.166l-0.813,-3.621c-0.221,-0.887 -0.679,-1.179 -1.704,-1.179l-1.633,0c-0.805,0 -1.554,0.588 -1.554,1.479l-0,32.692c-0,0.817 0.749,1.479 1.554,1.479l2.812,0c0.825,0 1.554,-0.662 1.554,-1.479l0,-20.338c0,-5.1 3.78,-9.183 8.588,-9.183c3.241,0 4.583,1.638 4.583,5.55l0,23.971c0,0.817 0.742,1.479 1.55,1.479l2.817,0c0.804,0 1.554,-0.662 1.554,-1.479Z" style="fill:#ed1846;fill-rule:nonzero;"/><path d="M623.279,5.7c0,-0.796 -0.65,-1.321 -1.383,-1.321l-3.142,0c-0.746,0 -1.404,0.525 -1.404,1.321l0,3.308c0,0.725 0.658,1.321 1.404,1.321l3.142,0c0.733,0 1.383,-0.596 1.383,-1.321l0,-3.308Z" style="fill:#ed1846;fill-rule:nonzero;"/><path d="M635.958,5.7c0,-0.796 -0.662,-1.321 -1.387,-1.321l-3.158,0c-0.73,0 -1.38,0.525 -1.38,1.321l0,3.308c0,0.725 0.65,1.321 1.38,1.321l3.158,0c0.725,0 1.387,-0.596 1.387,-1.321l0,-3.308Z" style="fill:#ed1846;fill-rule:nonzero;"/><path d="M637.862,17.604l-2.816,0c-0.813,0 -1.546,0.588 -1.546,1.479l-0,17.979c-0,7.834 -3.696,11.621 -8.942,11.621c-2.821,0 -4.516,-1.558 -4.516,-5.195l-0,-24.28c-0,-0.875 -0.75,-1.45 -1.538,-1.483c-0.016,0 -7.779,0.479 -7.779,0.479c-0.708,0.121 -1.25,0.738 -1.25,1.488l0,1.208c0,1.017 0.292,1.458 1.171,1.687l3.479,0.792l0,20.854c0,6.217 3.383,9.396 8.8,9.396c6.504,0 8.946,-3.483 10.796,-5.471l0.962,3.842c0.217,0.812 0.738,1.254 1.484,1.254l1.695,0c0.813,0 1.551,-0.662 1.551,-1.479l-0,-32.692c-0,-0.891 -0.738,-1.479 -1.551,-1.479Z" style="fill:#ed1846;fill-rule:nonzero;"/><path d="M921.338,104.413l-0,-15.538c-0,-3.404 -2.18,-5.679 -5.584,-5.679c-2.317,-0 -4.271,0.912 -6.225,3.091l0,-12.212c0,-0.546 -0.454,-0.908 -0.954,-0.908l-1.633,-0c-0.5,-0 -0.954,0.362 -0.954,0.908l-0,30.338c-0,0.499 0.454,0.908 0.954,0.908l1.633,-0c0.5,-0 0.954,-0.409 0.954,-0.908l0,-12.492c0,-3.133 2.408,-5.634 5.359,-5.634c1.999,0 2.908,0.996 2.908,3.409l-0,14.717c-0,0.499 0.454,0.908 0.954,0.908l1.633,-0c0.5,-0 0.955,-0.409 0.955,-0.908Zm-20.892,-0.363l-0.179,-0.958c-0.092,-0.5 -0.5,-0.821 -0.955,-0.725c-0.454,0.087 -1.045,0.183 -1.408,0.183c-1.133,-0 -1.633,-0.546 -1.633,-1.771l-0,-14.441l2.542,-0c0.499,-0 0.908,-0.455 0.908,-0.959l-0,-1c-0,-0.5 -0.409,-0.95 -0.908,-0.95l-2.542,0l-0,-5.683c-0,-0.721 -0.638,-0.679 -1.183,-0.496l-1.68,0.592c-0.408,0.133 -0.683,0.496 -0.683,0.995l0,4.592l-2.496,0c-0.55,0 -0.908,0.45 -0.908,0.95l-0,1c-0,0.504 0.358,0.959 0.908,0.959l2.496,-0l0,14.891c0,2.904 1.454,4.313 4.542,4.313c0.954,-0 1.862,-0.134 2.5,-0.317c0.637,-0.183 0.771,-0.633 0.679,-1.175Zm-13.621,0.042l-0.275,-1.225c-0.137,-0.596 -0.454,-0.725 -1,-0.596c-0.542,0.137 -1.042,0.279 -1.45,0.279c-1,-0 -1.138,-0.642 -1.138,-1.771l0,-26.704c0,-0.546 -0.454,-0.908 -0.954,-0.908l-1.633,-0c-0.5,-0 -0.954,0.362 -0.954,0.908l-0,27.612c-0,2.492 1.271,3.855 4.133,3.855c1.042,-0 1.909,-0.221 2.679,-0.5c0.5,-0.179 0.679,-0.45 0.592,-0.95Zm-19.258,-5.996c-0,1.771 -2,4.542 -5.088,4.542c-1.908,-0 -3.087,-1.092 -3.087,-3.45c-0,-3.684 2.179,-4.409 5.133,-4.546l3.042,-0.13l-0,3.584Zm4.087,6.317l-0.271,-1.363c-0.275,-1.363 -0.275,-2.592 -0.275,-3.775l0,-8.033c0,-3.634 -0.633,-8.046 -7.491,-8.046c-1.954,-0 -4.042,0.5 -5.271,0.821c-0.542,0.137 -0.725,0.541 -0.633,1.087l0.27,1.459c0.092,0.541 0.592,0.816 1.138,0.683c1.225,-0.321 2.45,-0.779 4.312,-0.779c3.409,-0 4.134,1.408 4.134,4.275l-0,1.179l-5.313,0.321c-3.133,0.179 -6.587,1.812 -6.587,6.946c-0,4.041 2.316,6.354 5.812,6.354c2.408,-0 4.771,-0.904 6.225,-3.313l0.363,2.271c0.091,0.592 0.5,0.821 1,0.821l1.862,-0c0.5,-0 0.817,-0.363 0.725,-0.908Zm-24.429,-12.042l-8.767,-0c0.546,-5.404 3.042,-6.267 4.542,-6.267c2.996,0 4.133,3.229 4.225,6.267Zm3.721,1.958c-0,-8.587 -3.859,-11.133 -8.038,-11.133c-4.858,-0 -8.22,4.183 -8.22,11.037c-0,7.359 3.408,11.309 9.675,11.309c2.587,-0 4.041,-0.45 5.266,-1c0.546,-0.225 0.775,-0.68 0.592,-1.175l-0.408,-1.138c-0.184,-0.454 -0.546,-0.771 -1.18,-0.587c-1.362,0.404 -2.591,0.725 -4.316,0.725c-4.088,-0 -5.68,-2.5 -5.859,-7.088l11.58,0c0.5,0 0.908,-0.454 0.908,-0.95Zm-24.113,10.084l0,-28.613c0,-0.546 -0.454,-0.908 -0.954,-0.908l-1.725,-0c-0.5,-0 -0.954,0.362 -0.954,0.908l-0,11.762l-11.492,0l0,-11.762c0,-0.546 -0.454,-0.908 -0.954,-0.908l-1.725,-0c-0.5,-0 -0.954,0.362 -0.954,0.908l-0,28.613c-0,0.499 0.454,0.908 0.954,0.908l1.725,-0c0.5,-0 0.954,-0.409 0.954,-0.908l0,-13.584l11.492,0l-0,13.584c-0,0.499 0.454,0.908 0.954,0.908l1.725,-0c0.5,-0 0.954,-0.409 0.954,-0.908Zm-35.562,-0.321l-0.271,-1.225c-0.138,-0.596 -0.454,-0.725 -1,-0.596c-0.546,0.137 -1.046,0.279 -1.454,0.279c-1,-0 -1.134,-0.642 -1.134,-1.771l0,-26.704c0,-0.546 -0.454,-0.908 -0.954,-0.908l-1.637,-0c-0.5,-0 -0.954,0.362 -0.954,0.908l-0,27.612c-0,2.492 1.275,3.855 4.133,3.855c1.046,-0 1.908,-0.221 2.679,-0.5c0.5,-0.179 0.684,-0.45 0.592,-0.95Zm-19.254,-5.996c-0,1.771 -2,4.542 -5.088,4.542c-1.908,-0 -3.087,-1.092 -3.087,-3.45c-0,-3.684 2.179,-4.409 5.129,-4.546l3.046,-0.13l-0,3.584Zm4.087,6.317l-0.275,-1.363c-0.271,-1.363 -0.271,-2.592 -0.271,-3.775l0,-8.033c0,-3.634 -0.637,-8.046 -7.496,-8.046c-1.95,-0 -4.041,0.5 -5.266,0.821c-0.546,0.137 -0.725,0.541 -0.638,1.087l0.275,1.459c0.092,0.541 0.588,0.816 1.134,0.683c1.229,-0.321 2.454,-0.779 4.316,-0.779c3.404,-0 4.134,1.408 4.134,4.275l-0,1.179l-5.317,0.321c-3.133,0.179 -6.583,1.812 -6.583,6.946c-0,4.041 2.316,6.354 5.812,6.354c2.409,-0 4.771,-0.904 6.221,-3.313l0.367,2.271c0.087,0.592 0.495,0.821 0.995,0.821l1.863,-0c0.5,-0 0.817,-0.363 0.729,-0.908Zm-19.617,-0.363l-0.187,-0.958c-0.092,-0.5 -0.496,-0.821 -0.954,-0.725c-0.454,0.087 -1.042,0.183 -1.409,0.183c-1.133,-0 -1.633,-0.546 -1.633,-1.771l0,-14.441l2.546,-0c0.496,-0 0.908,-0.455 0.908,-0.959l0,-1c0,-0.5 -0.412,-0.95 -0.908,-0.95l-2.546,0l0,-5.683c0,-0.721 -0.637,-0.679 -1.179,-0.496l-1.688,0.592c-0.404,0.133 -0.674,0.496 -0.674,0.995l-0,4.592l-2.496,0c-0.546,0 -0.913,0.45 -0.913,0.95l0,1c0,0.504 0.367,0.959 0.913,0.959l2.496,-0l-0,14.891c-0,2.904 1.454,4.313 4.541,4.313c0.954,-0 1.863,-0.134 2.5,-0.317c0.634,-0.183 0.771,-0.633 0.683,-1.175Zm-16.716,0.363l-0,-15.538c-0,-3.404 -2.179,-5.679 -5.588,-5.679c-2.362,-0 -4.312,0.912 -6.271,3.183l-0.495,-2.225c-0.138,-0.542 -0.409,-0.725 -1.046,-0.725l-0.996,0c-0.5,0 -0.954,0.363 -0.954,0.904l-0,20.08c-0,0.499 0.454,0.908 0.954,0.908l1.725,-0c0.5,-0 0.95,-0.409 0.95,-0.908l-0,-12.492c-0,-3.133 2.321,-5.634 5.271,-5.634c2,0 2.816,0.996 2.816,3.409l0,14.717c0,0.499 0.45,0.908 0.955,0.908l1.725,-0c0.5,-0 0.954,-0.409 0.954,-0.908Zm-26.154,-12.042l-8.767,-0c0.542,-5.404 3.042,-6.267 4.542,-6.267c2.995,0 4.129,3.229 4.225,6.267Zm3.716,1.958c0,-8.587 -3.858,-11.133 -8.033,-11.133c-4.862,-0 -8.225,4.183 -8.225,11.037c-0,7.359 3.413,11.309 9.679,11.309c2.588,-0 4.038,-0.45 5.263,-1c0.545,-0.225 0.77,-0.68 0.591,-1.175l-0.408,-1.138c-0.183,-0.454 -0.546,-0.771 -1.175,-0.587c-1.371,0.404 -2.596,0.725 -4.321,0.725c-4.087,-0 -5.671,-2.5 -5.854,-7.088l11.571,0c0.508,0 0.912,-0.454 0.912,-0.95Zm-23.116,10.084l-0,-16.538c-0,-3.858 -2.95,-4.679 -4.95,-4.679c-2.359,-0 -4.313,1.137 -6.175,3.367c-0.409,-2.088 -2.267,-3.367 -4.679,-3.367c-2.405,-0 -4.496,1.642 -5.763,3.142l-0.504,-2.184c-0.138,-0.542 -0.409,-0.725 -1.042,-0.725l-1,0c-0.496,0 -0.954,0.363 -0.954,0.904l-0,20.08c-0,0.499 0.458,0.908 0.954,0.908l1.725,-0c0.5,-0 0.954,-0.409 0.954,-0.908l0,-12.542c0,-3.133 2.271,-5.492 4.95,-5.492c1.413,0 2.138,0.725 2.138,2.134l-0,15.9c-0,0.499 0.45,0.908 0.954,0.908l1.725,-0c0.5,-0 0.954,-0.409 0.954,-0.908l0,-12.542c0,-3.133 2.313,-5.492 4.992,-5.492c1.412,0 2.087,0.725 2.087,2.134l0,15.9c0,0.499 0.459,0.908 0.954,0.908l1.73,-0c0.495,-0 0.95,-0.409 0.95,-0.908Zm-33.604,-0l-0,-15.538c-0,-3.404 -2.184,-5.679 -5.584,-5.679c-2.367,-0 -4.321,0.912 -6.266,3.183l-0.501,-2.225c-0.141,-0.542 -0.412,-0.725 -1.045,-0.725l-1.005,0c-0.5,0 -0.954,0.363 -0.954,0.904l0,20.08c0,0.499 0.454,0.908 0.954,0.908l1.725,-0c0.505,-0 0.955,-0.409 0.955,-0.908l-0,-12.492c-0,-3.133 2.321,-5.634 5.275,-5.634c1.995,0 2.812,0.996 2.812,3.409l0,14.717c0,0.499 0.454,0.908 0.954,0.908l1.725,-0c0.504,-0 0.955,-0.409 0.955,-0.908Zm-26.117,-10.038c-0,5.583 -1.725,8.175 -4.859,8.175c-3.133,-0 -4.858,-2.592 -4.858,-8.175c0,-5.454 1.725,-8.133 4.858,-8.133c3.134,-0 4.859,2.679 4.859,8.133Zm3.867,0c-0,-6.95 -3.367,-11.179 -8.634,-11.179c-5.266,-0 -8.716,4.229 -8.716,11.179c-0,6.988 3.45,11.167 8.716,11.167c5.267,-0 8.634,-4.179 8.634,-11.167Zm-20.209,-9.583c0.225,-0.913 -0.917,-1.596 -2.362,-1.596c-2.092,-0 -3.817,1.233 -5.092,3.367l-0.633,-2.455c-0.138,-0.458 -0.504,-0.679 -0.954,-0.679l-1.042,0c-0.504,0 -0.954,0.363 -0.954,0.904l-0,20.08c-0,0.499 0.45,0.908 0.954,0.908l1.725,-0c0.496,-0 0.954,-0.409 0.954,-0.908l0,-11.859c0,-3.946 1.767,-5.587 3.083,-5.587c0.863,-0 1.909,0.316 2.542,0.5c0.775,0.229 1.183,-0.184 1.321,-0.817l0.458,-1.858Zm-19.854,19.621l-0,-20.08c-0,-0.5 -0.454,-0.904 -0.954,-0.904l-1.634,0c-0.495,0 -0.954,0.404 -0.954,0.904l0,20.08c0,0.499 0.459,0.908 0.954,0.908l1.634,-0c0.5,-0 0.954,-0.409 0.954,-0.908Zm0.863,-28.842c-0,-1.459 -1.175,-2.638 -2.63,-2.638c-1.458,0 -2.633,1.179 -2.633,2.638c-0,1.454 1.175,2.633 2.633,2.633c1.455,0 2.63,-1.179 2.63,-2.633Zm-10.855,8.904c0.184,-0.683 -0.221,-1.046 -0.72,-1.046l-2.051,0c-0.541,0 -0.95,0.267 -1.083,0.863l-3.725,15.212c-0.271,1.042 -0.504,2.863 -0.642,3.95c-0.087,-1.133 -0.312,-2.908 -0.583,-3.95l-3.908,-15.171c-0.138,-0.587 -0.588,-0.904 -1.133,-0.904l-2.05,0c-0.5,0 -0.905,0.404 -0.68,1.179l5.813,19.892c0.183,0.637 0.412,0.821 0.954,0.821l2.862,-0c0.592,-0 0.913,-0.325 1.042,-0.821l5.904,-20.025Zm-22.791,19.938l-0,-15.538c-0,-3.404 -2.184,-5.679 -5.592,-5.679c-2.362,-0 -4.312,0.912 -6.267,3.183l-0.5,-2.225c-0.133,-0.542 -0.404,-0.725 -1.046,-0.725l-0.995,0c-0.5,0 -0.95,0.363 -0.95,0.904l-0,20.08c-0,0.499 0.45,0.908 0.95,0.908l1.729,-0c0.496,-0 0.954,-0.409 0.954,-0.908l0,-12.492c0,-3.133 2.308,-5.634 5.263,-5.634c2,0 2.82,0.996 2.82,3.409l0,14.717c0,0.499 0.455,0.908 0.954,0.908l1.725,-0c0.496,-0 0.955,-0.409 0.955,-0.908Zm-22.85,-0l-0,-1.642c-0,-0.542 -0.454,-0.95 -0.996,-0.95l-11.404,-0l-0,-10.942l9.995,0c0.546,0 0.955,-0.417 0.955,-1l-0,-1.408c-0,-0.5 -0.409,-0.909 -0.955,-0.909l-9.995,0l-0,-9.27l11.083,-0c0.592,-0 0.954,-0.45 0.954,-1l0,-1.492c0,-0.546 -0.454,-0.908 -0.954,-0.908l-13.808,-0c-0.496,-0 -0.95,0.362 -0.95,0.908l-0,28.613c-0,0.499 0.454,0.908 0.95,0.908l14.171,-0c0.5,-0 0.954,-0.409 0.954,-0.908Zm-32.471,-19.621c0.229,-0.913 -0.904,-1.596 -2.363,-1.596c-2.087,-0 -3.816,1.233 -5.087,3.367l-0.634,-2.455c-0.133,-0.458 -0.5,-0.679 -0.954,-0.679l-1.046,0c-0.499,0 -0.954,0.363 -0.954,0.904l0,20.08c0,0.499 0.455,0.908 0.954,0.908l1.725,-0c0.505,-0 0.955,-0.409 0.955,-0.908l-0,-11.859c-0,-3.946 1.771,-5.587 3.091,-5.587c0.863,-0 1.909,0.316 2.546,0.5c0.771,0.229 1.175,-0.184 1.313,-0.817l0.454,-1.858Zm-21.8,9.583c-0,5.583 -1.725,8.175 -4.858,8.175c-3.134,-0 -4.863,-2.592 -4.863,-8.175c-0,-5.454 1.729,-8.133 4.863,-8.133c3.133,-0 4.858,2.679 4.858,8.133Zm3.866,0c0,-6.95 -3.362,-11.179 -8.633,-11.179c-5.267,-0 -8.717,4.229 -8.717,11.179c0,6.988 3.45,11.167 8.717,11.167c5.271,-0 8.633,-4.179 8.633,-11.167Zm-20.17,-19.483c0.141,-0.5 -0,-1 -0.496,-1.23c-0.729,-0.316 -2.317,-0.729 -3.042,-0.729c-2.862,0 -4.954,1.409 -4.954,5.18l-0,5.316l-2.496,0c-0.546,0 -0.912,0.45 -0.912,0.95l-0,1c-0,0.504 0.366,0.959 0.912,0.959l2.496,-0l-0,18.075c-0,0.499 0.5,0.908 0.958,0.908l1.629,-0c0.5,-0 0.955,-0.409 0.955,-0.908l-0,-18.075l3.5,-0c0.496,-0 0.904,-0.455 0.904,-0.959l-0,-1c-0,-0.5 -0.408,-0.95 -0.904,-0.95l-3.5,0l-0,-5.179c-0,-1.633 0.641,-2.133 1.595,-2.133c0.584,-0 1.496,0.362 1.946,0.5c0.504,0.133 0.913,-0.05 1.046,-0.5l0.363,-1.225Zm-24.43,9.9c0.23,-0.913 -0.912,-1.596 -2.362,-1.596c-2.087,-0 -3.812,1.233 -5.092,3.367l-0.629,-2.455c-0.141,-0.458 -0.504,-0.679 -0.954,-0.679l-1.046,0c-0.504,0 -0.954,0.363 -0.954,0.904l-0,20.08c-0,0.499 0.45,0.908 0.954,0.908l1.725,-0c0.496,-0 0.954,-0.409 0.954,-0.908l0,-11.859c0,-3.946 1.767,-5.587 3.088,-5.587c0.862,-0 1.904,0.316 2.542,0.5c0.77,0.229 1.179,-0.184 1.32,-0.817l0.454,-1.858Zm-21.85,7.579l-8.762,-0c0.542,-5.404 3.042,-6.267 4.546,-6.267c2.992,0 4.125,3.229 4.216,6.267Zm3.725,1.958c0,-8.587 -3.854,-11.133 -8.033,-11.133c-4.858,-0 -8.221,4.183 -8.221,11.037c0,7.359 3.4,11.309 9.671,11.309c2.588,-0 4.046,-0.45 5.267,-1c0.546,-0.225 0.775,-0.68 0.596,-1.175l-0.413,-1.138c-0.183,-0.454 -0.541,-0.771 -1.183,-0.587c-1.358,0.404 -2.584,0.725 -4.309,0.725c-4.087,-0 -5.683,-2.5 -5.862,-7.088l11.583,0c0.496,0 0.904,-0.454 0.904,-0.95Zm-19.749,9.721l-0.188,-0.958c-0.092,-0.5 -0.496,-0.821 -0.954,-0.725c-0.454,0.087 -1.042,0.183 -1.408,0.183c-1.134,-0 -1.634,-0.546 -1.634,-1.771l0,-14.441l2.546,-0c0.496,-0 0.904,-0.455 0.904,-0.959l0,-1c0,-0.5 -0.408,-0.95 -0.904,-0.95l-2.546,0l0,-5.683c0,-0.721 -0.637,-0.679 -1.175,-0.496l-1.687,0.592c-0.405,0.133 -0.675,0.496 -0.675,0.995l-0,4.592l-2.5,0c-0.542,0 -0.913,0.45 -0.913,0.95l0,1c0,0.504 0.371,0.959 0.913,0.959l2.5,-0l-0,14.891c-0,2.904 1.45,4.313 4.541,4.313c0.955,-0 1.859,-0.134 2.496,-0.317c0.633,-0.183 0.775,-0.633 0.684,-1.175Zm-16.717,0.363l-0,-15.538c-0,-3.404 -2.175,-5.679 -5.584,-5.679c-2.366,-0 -4.316,0.912 -6.27,3.183l-0.496,-2.225c-0.142,-0.542 -0.413,-0.725 -1.046,-0.725l-1,0c-0.5,0 -0.954,0.363 -0.954,0.904l-0,20.08c-0,0.499 0.454,0.908 0.954,0.908l1.725,-0c0.504,-0 0.954,-0.409 0.954,-0.908l0,-12.492c0,-3.133 2.321,-5.634 5.271,-5.634c2,0 2.813,0.996 2.813,3.409l-0,14.717c-0,0.499 0.454,0.908 0.954,0.908l1.725,-0c0.5,-0 0.954,-0.409 0.954,-0.908Zm-26.154,-12.042l-8.767,-0c0.542,-5.404 3.042,-6.267 4.538,-6.267c3,0 4.137,3.229 4.229,6.267Zm3.72,1.958c0,-8.587 -3.862,-11.133 -8.041,-11.133c-4.859,-0 -8.221,4.183 -8.221,11.037c-0,7.359 3.412,11.309 9.679,11.309c2.588,-0 4.038,-0.45 5.263,-1c0.55,-0.225 0.775,-0.68 0.591,-1.175l-0.408,-1.138c-0.183,-0.454 -0.546,-0.771 -1.179,-0.587c-1.367,0.404 -2.592,0.725 -4.317,0.725c-4.087,-0 -5.675,-2.5 -5.854,-7.088l11.575,0c0.504,0 0.912,-0.454 0.912,-0.95Zm-20.475,8.9l-0.82,-1.725c-0.184,-0.362 -0.592,-0.596 -1.138,-0.321c-0.771,0.363 -2.496,0.863 -3.725,0.863c-4.496,-0 -7.808,-3.588 -7.808,-12.125c-0,-8.313 2.817,-11.85 7.9,-11.85c1.412,-0 2.458,0.358 3.5,0.862c0.546,0.267 0.996,0.088 1.229,-0.362l0.721,-1.408c0.275,-0.501 0.091,-1.046 -0.358,-1.321c-1.592,-0.95 -3.455,-1.184 -5.226,-1.184c-6.945,0 -11.766,5.638 -11.766,15.221c-0,9.988 4.229,15.663 11.496,15.663c2.771,-0 4.4,-0.63 5.583,-1.225c0.362,-0.184 0.633,-0.588 0.412,-1.088Zm-35.333,1.184l0,-15.538c0,-3.404 -2.179,-5.679 -5.592,-5.679c-2.312,-0 -4.266,0.912 -6.216,3.091l-0,-12.212c-0,-0.546 -0.458,-0.908 -0.954,-0.908l-1.634,-0c-0.504,-0 -0.954,0.362 -0.954,0.908l0,30.338c0,0.499 0.45,0.908 0.954,0.908l1.634,-0c0.496,-0 0.954,-0.409 0.954,-0.908l-0,-12.492c-0,-3.133 2.404,-5.634 5.354,-5.634c2,0 2.912,0.996 2.912,3.409l0,14.717c0,0.499 0.45,0.908 0.955,0.908l1.633,-0c0.496,-0 0.954,-0.409 0.954,-0.908Zm-21.033,-0.551l-0.313,-1.408c-0.091,-0.45 -0.504,-0.862 -1.133,-0.679c-0.863,0.229 -1.958,0.413 -3.183,0.413c-3.454,-0 -5.221,-2.638 -5.221,-7.996c-0,-4.905 2,-7.854 4.812,-7.854c1.271,-0 2.363,0.362 3.092,0.629c0.679,0.279 0.996,-0.088 1.129,-0.546l0.454,-1.317c0.184,-0.496 -0.091,-0.862 -0.679,-1.129c-0.817,-0.363 -2.312,-0.779 -3.858,-0.779c-5.042,-0 -8.813,4.546 -8.813,10.996c0,7.312 3.542,11.35 8.854,11.35c1.546,-0 2.863,-0.134 4.134,-0.546c0.596,-0.179 0.817,-0.679 0.725,-1.134Zm-17.029,-19.07c0.233,-0.913 -0.905,-1.596 -2.363,-1.596c-2.083,-0 -3.812,1.233 -5.087,3.367l-0.634,-2.455c-0.137,-0.458 -0.5,-0.679 -0.954,-0.679l-1.046,0c-0.5,0 -0.954,0.363 -0.954,0.904l0,20.08c0,0.499 0.454,0.908 0.954,0.908l1.73,-0c0.499,-0 0.954,-0.409 0.954,-0.908l-0,-11.859c-0,-3.946 1.766,-5.587 3.091,-5.587c0.859,-0 1.9,0.316 2.542,0.5c0.771,0.229 1.175,-0.184 1.312,-0.817l0.455,-1.858Zm-22.979,13.304c-0,1.771 -2.001,4.542 -5.084,4.542c-1.908,-0 -3.091,-1.092 -3.091,-3.45c-0,-3.684 2.179,-4.409 5.129,-4.546l3.046,-0.13l-0,3.584Zm4.091,6.317l-0.279,-1.363c-0.271,-1.363 -0.271,-2.592 -0.271,-3.775l0,-8.033c0,-3.634 -0.633,-8.046 -7.491,-8.046c-1.955,-0 -4.046,0.5 -5.271,0.821c-0.546,0.137 -0.721,0.541 -0.634,1.087l0.271,1.459c0.092,0.541 0.596,0.816 1.134,0.683c1.229,-0.321 2.454,-0.779 4.32,-0.779c3.4,-0 4.13,1.408 4.13,4.275l-0,1.179l-5.313,0.321c-3.137,0.179 -6.588,1.812 -6.588,6.946c0,4.041 2.317,6.354 5.813,6.354c2.408,-0 4.771,-0.904 6.221,-3.313l0.367,2.271c0.087,0.592 0.499,0.821 1,0.821l1.858,-0c0.504,-0 0.825,-0.363 0.733,-0.908Zm-24.437,-12.042l-8.763,-0c0.542,-5.404 3.042,-6.267 4.542,-6.267c2.996,0 4.133,3.229 4.221,6.267Zm3.725,1.958c-0,-8.587 -3.855,-11.133 -8.038,-11.133c-4.858,-0 -8.216,4.183 -8.216,11.037c-0,7.359 3.404,11.309 9.67,11.309c2.588,-0 4.046,-0.45 5.271,-1c0.542,-0.225 0.771,-0.68 0.592,-1.175l-0.413,-1.138c-0.179,-0.454 -0.541,-0.771 -1.183,-0.587c-1.358,0.404 -2.583,0.725 -4.308,0.725c-4.088,-0 -5.684,-2.5 -5.863,-7.088l11.583,0c0.496,0 0.905,-0.454 0.905,-0.95Zm-21.746,5.088c-0,-6.634 -9.404,-6.767 -9.404,-10.584c-0,-1.637 1.187,-2.683 3.225,-2.683c1.362,0 2.77,0.454 3.683,0.817c0.496,0.183 0.954,0.095 1.137,-0.45l0.405,-1.138c0.183,-0.541 0.045,-1 -0.405,-1.225c-1.187,-0.542 -2.55,-0.958 -4.679,-0.958c-4.27,-0 -6.95,2.408 -6.95,5.904c0,6.092 9.309,6.138 9.309,10.271c-0,1.858 -1.046,2.95 -3.313,2.95c-1.821,-0 -3.587,-0.5 -5.041,-1.225c-0.505,-0.229 -1.005,-0.05 -1.184,0.591l-0.404,1.363c-0.188,0.546 -0.05,0.95 0.496,1.225c1.633,0.817 4.087,1.267 6.042,1.267c4.358,-0 7.083,-2.538 7.083,-6.125Zm-22.108,-7.046l-8.763,-0c0.538,-5.404 3.042,-6.267 4.538,-6.267c3,0 4.133,3.229 4.225,6.267Zm3.724,1.958c0,-8.587 -3.862,-11.133 -8.041,-11.133c-4.863,-0 -8.221,4.183 -8.221,11.037c-0,7.359 3.408,11.309 9.679,11.309c2.588,-0 4.038,-0.45 5.263,-1c0.55,-0.225 0.771,-0.68 0.591,-1.175l-0.404,-1.138c-0.187,-0.454 -0.55,-0.771 -1.187,-0.587c-1.363,0.404 -2.588,0.725 -4.313,0.725c-4.087,-0 -5.675,-2.5 -5.854,-7.088l11.575,0c0.5,0 0.912,-0.454 0.912,-0.95Zm-25.933,-11.496c0,3.367 -2.225,5.317 -5.812,5.317l-4.409,0l0,-9.946l4.913,0c3.492,0 5.308,1.954 5.308,4.629Zm5.638,21.396c-1.817,-5.092 -3.184,-8.541 -3.596,-9.404c-0.996,-2.133 -2.813,-4.492 -5.533,-4.946l0.404,-0.046c4.95,-0.546 6.858,-4.229 6.858,-7.545c-0,-2.855 -1.592,-7.396 -9.038,-7.396l-7.675,-0c-0.499,-0 -0.95,0.362 -0.95,0.908l0,28.613c0,0.499 0.451,0.908 0.95,0.908l1.771,-0c0.496,-0 0.95,-0.409 0.95,-0.908l0,-12.992l2.409,-0c3.366,-0 4.775,1.996 5.816,3.858c1.313,2.317 2.179,5.542 3.454,9.496c0.13,0.404 0.45,0.546 0.813,0.546l2.729,-0c0.675,-0 0.858,-0.458 0.638,-1.092Zm-39.421,0.184l-0,-15.538c-0,-3.404 -2.183,-5.679 -5.592,-5.679c-2.362,-0 -4.312,0.912 -6.267,3.183l-0.499,-2.225c-0.138,-0.542 -0.405,-0.725 -1.046,-0.725l-0.996,0c-0.504,0 -0.954,0.363 -0.954,0.904l-0,20.08c-0,0.499 0.45,0.908 0.954,0.908l1.725,-0c0.496,-0 0.954,-0.409 0.954,-0.908l0,-12.492c0,-3.133 2.313,-5.634 5.267,-5.634c1.995,0 2.821,0.996 2.821,3.409l-0,14.717c-0,0.499 0.449,0.908 0.95,0.908l1.729,-0c0.495,-0 0.954,-0.409 0.954,-0.908Zm-27.3,-6.317c-0,1.771 -2,4.542 -5.083,4.542c-1.909,-0 -3.092,-1.092 -3.092,-3.45c-0,-3.684 2.179,-4.409 5.129,-4.546l3.046,-0.13l-0,3.584Zm4.087,6.317l-0.275,-1.363c-0.27,-1.363 -0.27,-2.592 -0.27,-3.775l-0,-8.033c-0,-3.634 -0.634,-8.046 -7.492,-8.046c-1.954,-0 -4.046,0.5 -5.271,0.821c-0.542,0.137 -0.721,0.541 -0.633,1.087l0.275,1.459c0.087,0.541 0.591,0.816 1.129,0.683c1.229,-0.321 2.454,-0.779 4.321,-0.779c3.404,-0 4.129,1.408 4.129,4.275l-0,1.179l-5.317,0.321c-3.133,0.179 -6.583,1.812 -6.583,6.946c-0,4.041 2.321,6.354 5.812,6.354c2.413,-0 4.771,-0.904 6.225,-3.313l0.363,2.271c0.087,0.592 0.504,0.821 1,0.821l1.858,-0c0.504,-0 0.821,-0.363 0.729,-0.908Zm-22.525,-0l0,-16.538c0,-3.858 -2.95,-4.679 -4.95,-4.679c-2.358,-0 -4.316,1.137 -6.175,3.367c-0.412,-2.088 -2.271,-3.367 -4.679,-3.367c-2.408,-0 -4.5,1.642 -5.771,3.142l-0.496,-2.184c-0.141,-0.542 -0.408,-0.725 -1.045,-0.725l-1,0c-0.5,0 -0.954,0.363 -0.954,0.904l-0,20.08c-0,0.499 0.454,0.908 0.954,0.908l1.729,-0c0.5,-0 0.954,-0.409 0.954,-0.908l-0,-12.542c-0,-3.133 2.267,-5.492 4.946,-5.492c1.408,0 2.137,0.725 2.137,2.134l0,15.9c0,0.499 0.455,0.908 0.954,0.908l1.721,-0c0.5,-0 0.954,-0.409 0.954,-0.908l0,-12.542c0,-3.133 2.317,-5.492 5,-5.492c1.405,0 2.084,0.725 2.084,2.134l-0,15.9c-0,0.499 0.454,0.908 0.954,0.908l1.733,-0c0.496,-0 0.95,-0.409 0.95,-0.908Zm-30.112,-19.621c0.229,-0.913 -0.904,-1.596 -2.358,-1.596c-2.088,-0 -3.817,1.233 -5.092,3.367l-0.629,-2.455c-0.142,-0.458 -0.504,-0.679 -0.955,-0.679l-1.045,0c-0.504,0 -0.955,0.363 -0.955,0.904l0,20.08c0,0.499 0.451,0.908 0.955,0.908l1.725,-0c0.496,-0 0.954,-0.409 0.954,-0.908l-0,-11.859c-0,-3.946 1.767,-5.587 3.083,-5.587c0.863,-0 1.908,0.316 2.55,0.5c0.767,0.229 1.175,-0.184 1.317,-0.817l0.45,-1.858Zm-21.846,7.579l-8.767,-0c0.55,-5.404 3.046,-6.267 4.546,-6.267c2.996,0 4.129,3.229 4.221,6.267Zm3.725,1.958c-0,-8.587 -3.858,-11.133 -8.033,-11.133c-4.863,-0 -8.225,4.183 -8.225,11.037c-0,7.359 3.404,11.309 9.67,11.309c2.592,-0 4.046,-0.45 5.271,-1c0.546,-0.225 0.771,-0.68 0.596,-1.175l-0.416,-1.138c-0.18,-0.454 -0.538,-0.771 -1.176,-0.587c-1.362,0.404 -2.587,0.725 -4.312,0.725c-4.092,-0 -5.683,-2.5 -5.867,-7.088l11.588,0c0.5,0 0.904,-0.454 0.904,-0.95Zm-23.254,8.579l-0,-14.12c-0,-0.551 -0.454,-0.913 -0.954,-0.913l-7.492,0c-0.542,0 -0.904,0.454 -0.904,0.958l-0,1.629c-0,0.501 0.362,0.959 0.904,0.959l4.858,-0l0,10.221c-1.179,0.362 -2.445,0.546 -3.725,0.546c-5.358,-0 -8.583,-3.367 -8.583,-11.95c-0,-8.217 2.55,-12.08 8.225,-12.08c2.133,0 3.904,0.592 5.45,1.409c0.45,0.229 0.904,-0.092 1.046,-0.413l0.771,-1.679c0.183,-0.45 0.091,-0.954 -0.459,-1.225c-1.862,-0.95 -4.308,-1.592 -6.629,-1.592c-7.992,0 -12.35,5.638 -12.35,15.309c0,10.45 4.179,15.575 11.758,15.575c2.455,-0 5.184,-0.405 6.859,-1.042c0.821,-0.321 1.225,-0.683 1.225,-1.592Z" style="fill:#6c6e70;fill-rule:nonzero;"/></g></svg>